<svg width="24" height="24" viewBox="0 0 24 24" fill="none" xmlns="http://www.w3.org/2000/svg">
<path fill-rule="evenodd" clip-rule="evenodd" d="M7.58341 2.057C8.59645 2.01036 8.91945 2 11.5 2C14.0805 2 14.4035 2.01123 15.4157 2.057C16.4279 2.10277 17.1188 2.26427 17.7234 2.49832C18.3564 2.73755 18.9307 3.1115 19.4057 3.59514C19.8894 4.06927 20.2625 4.64273 20.5008 5.27664C20.7357 5.88118 20.8964 6.57209 20.943 7.58255C20.9896 8.59732 21 8.92032 21 11.5C21 14.0805 20.9888 14.4035 20.943 15.4166C20.8972 16.427 20.7357 17.118 20.5008 17.7225C20.2624 18.3565 19.8887 18.9309 19.4057 19.4057C18.9307 19.8894 18.3564 20.2625 17.7234 20.5008C17.1188 20.7357 16.4279 20.8964 15.4175 20.943C14.4035 20.9896 14.0805 21 11.5 21C8.91945 21 8.59645 20.9888 7.58341 20.943C6.57295 20.8972 5.88205 20.7357 5.2775 20.5008C4.64352 20.2624 4.06912 19.8887 3.59427 19.4057C3.11096 18.9313 2.73695 18.3572 2.49832 17.7234C2.26427 17.1188 2.10364 16.4279 2.057 15.4175C2.01036 14.4027 2 14.0797 2 11.5C2 8.91945 2.01123 8.59645 2.057 7.58427C2.10277 6.57209 2.26427 5.88118 2.49832 5.27664C2.73731 4.6428 3.1116 4.06868 3.59514 3.59427C4.06931 3.11107 4.64314 2.73706 5.27664 2.49832C5.88118 2.26427 6.57209 2.10364 7.58255 2.057H7.58341ZM15.3389 3.767C14.337 3.72123 14.0365 3.71173 11.5 3.71173C8.9635 3.71173 8.66295 3.72123 7.66114 3.767C6.73445 3.80932 6.23182 3.96391 5.89673 4.09432C5.45368 4.26705 5.13673 4.47173 4.80423 4.80423C4.48904 5.11086 4.24647 5.48415 4.09432 5.89673C3.96391 6.23182 3.80932 6.73445 3.767 7.66114C3.72123 8.66295 3.71173 8.9635 3.71173 11.5C3.71173 14.0365 3.72123 14.337 3.767 15.3389C3.80932 16.2655 3.96391 16.7682 4.09432 17.1033C4.24632 17.5152 4.489 17.8892 4.80423 18.1958C5.11082 18.511 5.48477 18.7537 5.89673 18.9057C6.23182 19.0361 6.73445 19.1907 7.66114 19.233C8.66295 19.2788 8.96264 19.2883 11.5 19.2883C14.0374 19.2883 14.337 19.2788 15.3389 19.233C16.2655 19.1907 16.7682 19.0361 17.1033 18.9057C17.5463 18.733 17.8633 18.5283 18.1958 18.1958C18.511 17.8892 18.7537 17.5152 18.9057 17.1033C19.0361 16.7682 19.1907 16.2655 19.233 15.3389C19.2788 14.337 19.2883 14.0365 19.2883 11.5C19.2883 8.9635 19.2788 8.66295 19.233 7.66114C19.1907 6.73445 19.0361 6.23182 18.9057 5.89673C18.733 5.45368 18.5283 5.13673 18.1958 4.80423C17.8891 4.48906 17.5158 4.2465 17.1033 4.09432C16.7682 3.96391 16.2655 3.80932 15.3389 3.767V3.767ZM10.2866 14.4286C10.9643 14.7107 11.7188 14.7488 12.4214 14.5363C13.1241 14.3239 13.7311 13.8741 14.1389 13.2638C14.5468 12.6534 14.73 11.9205 14.6575 11.19C14.5849 10.4596 14.261 9.77702 13.7411 9.25886C13.4097 8.92764 13.009 8.67402 12.5677 8.51626C12.1265 8.35851 11.6558 8.30054 11.1895 8.34653C10.7232 8.39252 10.2729 8.54133 9.87101 8.78225C9.46912 9.02316 9.12564 9.35019 8.86531 9.73978C8.60497 10.1294 8.43425 10.5718 8.36545 11.0353C8.29664 11.4988 8.33145 11.9718 8.46738 12.4202C8.6033 12.8686 8.83696 13.2813 9.15153 13.6286C9.4661 13.9759 9.85376 14.2491 10.2866 14.4286ZM8.04718 8.04718C8.50061 7.59375 9.03891 7.23407 9.63135 6.98868C10.2238 6.74328 10.8588 6.61698 11.5 6.61698C12.1412 6.61698 12.7762 6.74328 13.3687 6.98868C13.9611 7.23407 14.4994 7.59375 14.9528 8.04718C15.4062 8.50061 15.7659 9.03891 16.0113 9.63135C16.2567 10.2238 16.383 10.8588 16.383 11.5C16.383 12.1412 16.2567 12.7762 16.0113 13.3687C15.7659 13.9611 15.4062 14.4994 14.9528 14.9528C14.0371 15.8686 12.7951 16.383 11.5 16.383C10.2049 16.383 8.96293 15.8686 8.04718 14.9528C7.13144 14.0371 6.61698 12.7951 6.61698 11.5C6.61698 10.2049 7.13144 8.96293 8.04718 8.04718V8.04718ZM17.466 7.34418C17.5784 7.23819 17.6683 7.11072 17.7305 6.96934C17.7928 6.82796 17.826 6.67553 17.8282 6.52108C17.8305 6.36662 17.8017 6.21329 17.7436 6.07015C17.6856 5.92702 17.5994 5.79699 17.4901 5.68776C17.3809 5.57854 17.2509 5.49234 17.1078 5.43427C16.9646 5.37619 16.8113 5.34743 16.6568 5.34969C16.5024 5.35194 16.35 5.38516 16.2086 5.44737C16.0672 5.50959 15.9397 5.59955 15.8337 5.71191C15.6276 5.93043 15.5147 6.2207 15.5191 6.52108C15.5235 6.82146 15.6448 7.1083 15.8572 7.32073C16.0696 7.53315 16.3565 7.65442 16.6568 7.6588C16.9572 7.66318 17.2475 7.55032 17.466 7.34418V7.34418Z" fill="white"/>
</svg>
