<svg width="24" height="24" viewBox="0 0 24 24" fill="none" xmlns="http://www.w3.org/2000/svg">
<path d="M18.1856 18.1922H15.3754V13.7824C15.3754 12.7308 15.3534 11.3795 13.9059 11.3795C12.4405 11.3795 12.2173 12.5201 12.2173 13.7046V18.1916H9.40347V9.12441H12.1062V10.3612H12.1424C12.5201 9.64691 13.4386 8.89581 14.809 8.89581C17.6596 8.89581 18.1886 10.7727 18.1886 13.213V18.1916L18.1856 18.1922ZM6.22453 7.88525C6.00976 7.88533 5.79708 7.84303 5.59867 7.76079C5.40027 7.67855 5.22004 7.55797 5.06831 7.40596C4.91658 7.25396 4.79633 7.07351 4.71445 6.87496C4.63256 6.6764 4.59066 6.46365 4.59112 6.24888C4.59148 5.92561 4.68767 5.6097 4.86755 5.34111C5.04743 5.07251 5.30291 4.86328 5.60169 4.73986C5.90048 4.61645 6.22914 4.58441 6.54614 4.64778C6.86313 4.71114 7.15422 4.86708 7.3826 5.09587C7.61098 5.32467 7.76638 5.61604 7.82918 5.93315C7.89197 6.25026 7.85933 6.57886 7.73537 6.87742C7.61142 7.17598 7.40173 7.43108 7.1328 7.61047C6.86388 7.78986 6.5478 7.88548 6.22453 7.88525V7.88525ZM7.63409 18.1922H4.81437V9.125H7.63409V18.1922ZM19.5964 2H3.40125C2.62759 2 2 2.61216 2 3.36978V19.6308C2 20.3884 2.62759 21.0006 3.40125 21.0006H19.5934C20.3659 21.0006 21 20.3884 21 19.6308V3.36978C21 2.61216 20.3659 2 19.5934 2H19.5964Z" fill="white"/>
</svg>
