<?xml version="1.0" encoding="utf-8"?>
<!-- Generator: Adobe Illustrator 23.1.1, SVG Export Plug-In . SVG Version: 6.00 Build 0)  -->
<svg version="1.1" id="Layer_1" width="96px" height="96px" xmlns="http://www.w3.org/2000/svg" xmlns:xlink="http://www.w3.org/1999/xlink" x="0px" y="0px"
	 viewBox="0 0 1000 1000" style="enable-background:new 0 0 1000 1000;" xml:space="preserve">
<style type="text/css">
	.st0{fill:#0040E3;}
	.st1{fill:#FFFFFF;}
	.st2{fill-rule:evenodd;clip-rule:evenodd;fill:#FFFFFF;}
</style>
<rect x="0.28" class="st0" width="1001.12" height="1000"/>
<g>
	<path class="st1" d="M567.08,641.98c-12.25,0.08-21.61,9.59-21.52,21.86c0.1,12.22,9.14,21.22,21.42,21.31
		c12.42,0.1,21.74-9.09,21.75-21.45C588.75,651.51,579.15,641.9,567.08,641.98z"/>
	<path class="st1" d="M547.15,844.98c13.42,0,26.47,0,40,0c0-46.43,0-92.55,0-138.7c-13.57,0-26.75,0-40,0
		C547.15,752.62,547.15,798.74,547.15,844.98z"/>
	<path class="st1" d="M136.79,845.36c13.42,0,26.47,0,40,0c0-68.07,0-135.69,0-203.36c-13.57,0-26.75,0-40,0
		C136.79,709.94,136.79,777.57,136.79,845.36z"/>
	<path class="st1" d="M288.83,698.92c-35.7,0-64.76,25.04-64.76,61.28v84.47h39.7V760.2c0-14.01,11.23-25.42,25.05-25.42
		c13.82,0,25.06,11.41,25.06,25.42v84.77h39.7V760.2C353.57,723.96,324.53,698.92,288.83,698.92z"/>
	<path class="st1" d="M631.03,708.15h-0.04c0,45.73,0,91.21,0,136.82c13.78,0,27.19,0,41.08,0c0-32.58,0-65.13,0-97.53
		c8.19,0,16.36,0,24.52,0c0-13.77,0-27.15,0-40.59c-4.36,0-24.42,0-24.42,0c0-8.86,0,9.3,0,1.29c0-16.75,11.97-25.6,25.87-25.6
		v-40.57C661.1,641.98,631.04,671.66,631.03,708.15z"/>
	<path class="st1" d="M485.33,767.8c-6.9-2.74-13.71-5.09-20.46-7.06c-6.75-1.97-12.47-4.21-17.16-6.71
		c-4.69-2.51-7.04-5.63-7.04-9.39c0-3.08,1.65-5.8,4.94-8.15c3.3-2.35,7.79-3.53,13.49-3.53c4.5,0,8.89,1.08,13.18,3.25
		c4.3,2.17,7.12,3.93,8.46,5.26c1.34,1.34,2.32,2.41,2.92,3.18l21.43-23.51l-5.25-5.63c-3.39-3.56-9.47-7.22-18.21-10.96
		c-8.74-3.74-18.31-5.63-28.7-5.63c-16.38,0-30.2,4.71-41.43,14.14c-11.24,9.43-16.87,19.95-16.87,31.6
		c0,8.95,2.35,16.35,7.04,22.22c4.69,5.87,10.42,10.2,17.16,12.99c6.74,2.79,13.56,5.16,20.46,7.15c6.9,1.97,12.69,4.28,17.38,6.92
		c4.69,2.64,7.04,5.94,7.04,9.88c0,3.94-1.67,7.15-5.01,9.6c-3.35,2.45-8.32,3.69-14.91,3.69c-5.99,0-11.79-1.52-17.38-4.55
		c-5.6-3.02-9.27-5.43-11.02-7.22c-1.75-1.79-3.02-3.25-3.83-4.41l-23.08,22.08l2.11,3.02c1.51,1.73,3.92,3.87,7.26,6.42
		c3.35,2.55,7.26,5.12,11.77,7.72c4.5,2.6,10.35,4.81,17.54,6.64c7.19,1.83,14.79,2.74,22.79,2.74c18.58,0,33.19-4.38,43.83-13.13
		c10.64-8.75,15.96-19.63,15.96-32.6c0-9.05-2.35-16.62-7.04-22.72C498.03,774.96,492.23,770.55,485.33,767.8z"/>
	<path class="st2" d="M865.67,771.11v-64.63h-39.95v85.32c0,13.99-11.3,25.38-25.21,25.38c-13.91,0-25.21-11.39-25.21-25.38v-85.61
		h-39.95v85.61c0.01,36.17,29.24,61.16,65.16,61.16c8.93,0,17.45-1.55,25.21-4.42v7.06c0,14.01-11.3,25.43-25.21,25.43
		c-0.63,0-1.25-0.03-1.87-0.08v35.89c0.62,0.02,1.24,0.04,1.87,0.04c35.92,0,65.16-25.04,65.16-61.29L865.67,771.11L865.67,771.11z"
		/>
</g>
</svg>
