<svg width="24" height="24" viewBox="0 0 24 24" fill="none" xmlns="http://www.w3.org/2000/svg">
<path d="M22 5.02501C21.2277 5.36721 20.3981 5.59843 19.526 5.70294C20.4259 5.16447 21.0991 4.31699 21.4201 3.31863C20.5746 3.82083 19.6493 4.17431 18.6844 4.36373C18.0355 3.67088 17.176 3.21165 16.2393 3.05733C15.3027 2.90302 14.3413 3.06225 13.5044 3.51031C12.6675 3.95838 12.002 4.6702 11.6111 5.53526C11.2203 6.40033 11.1259 7.37024 11.3428 8.29441C9.62963 8.20839 7.95372 7.76312 6.4238 6.98749C4.89389 6.21185 3.54416 5.1232 2.46221 3.79216C2.09227 4.43032 1.87955 5.17021 1.87955 5.9582C1.87913 6.66757 2.05382 7.36607 2.38811 7.99173C2.7224 8.61739 3.20595 9.15087 3.79587 9.54483C3.11172 9.52306 2.44267 9.3382 1.8444 9.00563V9.06112C1.84433 10.056 2.18848 11.0203 2.81846 11.7904C3.44843 12.5605 4.32542 13.0888 5.30063 13.2859C4.66597 13.4577 4.00058 13.483 3.35471 13.3599C3.62985 14.216 4.16581 14.9646 4.88755 15.5009C5.60929 16.0372 6.48068 16.3344 7.37972 16.3509C5.85354 17.549 3.96871 18.1989 2.02845 18.196C1.68475 18.1961 1.34135 18.176 1 18.1359C2.96948 19.4022 5.2621 20.0743 7.60354 20.0716C15.5296 20.0716 19.8626 13.507 19.8626 7.81348C19.8626 7.62851 19.858 7.44168 19.8497 7.25671C20.6925 6.6472 21.42 5.89244 21.9982 5.02779L22 5.02501V5.02501Z" fill="white"/>
</svg>
