<svg viewBox="0 0 97 30" fill="none" xmlns="http://www.w3.org/2000/svg">
<path d="M74.4191 24.7684C73.7872 24.0448 73.3061 23.205 73.0035 22.2972L72.9214 22.0688L72.8393 21.7897L72.7881 21.6172L72.706 21.2975L72.665 21.1097C72.6239 20.9321 72.588 20.7444 72.5572 20.5566C72.5511 20.4886 72.5408 20.4206 72.5265 20.3536L72.4854 20.0238C72.4936 19.9512 72.4936 19.8782 72.4854 19.8056L72.4598 19.5265L86.8215 16.1012C86.7374 15.3654 86.5163 14.6515 86.1701 13.9953C85.6377 12.848 84.7713 11.8828 83.6824 11.2247C82.476 10.4701 81.1209 9.97839 79.7073 9.78353L79.4662 9.74801C78.6138 9.65464 77.7541 9.65464 76.9017 9.74801C74.6407 9.99006 72.5167 10.9435 70.8441 12.4679C69.1925 13.9547 68.0877 15.9444 67.705 18.1209V18.2071C67.6794 18.3492 67.6589 18.4862 67.6435 18.6435C67.6281 18.8008 67.6435 18.8211 67.6127 18.9226C67.6194 19.0003 67.6194 19.0784 67.6127 19.1561C67.623 19.291 67.623 19.427 67.6127 19.562V20.2166C67.6461 21.3919 67.8964 22.5509 68.3513 23.6368C70.0055 27.4325 73.7852 29.917 77.9634 29.9545C79.696 29.989 81.4117 29.6094 82.9643 28.8483C84.5 28.0978 85.8254 26.9839 86.8215 25.6057L86.5753 24.9917C85.5597 26.9098 78.5532 29.2948 74.4191 24.7684V24.7684ZM80.9537 16.3397L72.4136 18.3695C72.4136 18.1158 72.4136 17.8621 72.4495 17.6236V17.5475C72.4454 17.4663 72.4454 17.3851 72.4495 17.3039L72.4906 16.974C72.568 16.4463 72.688 15.9251 72.8496 15.4162C73.1394 14.4718 73.5831 13.5807 74.1627 12.7775C74.6915 12.0376 75.3711 11.415 76.1579 10.9507C76.9109 10.5051 77.7736 10.2737 78.6507 10.2808C79.875 10.2808 80.7706 10.6193 81.3384 11.2957C81.5451 11.5317 81.7174 11.7945 81.8513 12.0772C82.4206 13.5133 82.3796 15.9033 80.9537 16.3397V16.3397Z" fill="white"/>
<path d="M48.7887 24.9765C47.7629 26.915 40.7667 29.2949 36.6326 24.7736C35.9545 23.9921 35.4482 23.0797 35.1451 22.0942C34.7886 20.9769 34.6153 19.8102 34.6322 18.6385C34.6245 17.5445 34.7871 16.456 35.1143 15.4112C35.4041 14.4668 35.8478 13.5758 36.4274 12.7725C36.947 12.0382 37.6138 11.4181 38.3867 10.9507C39.1397 10.5057 40.0024 10.2738 40.8795 10.2809C42.1039 10.2809 42.9994 10.6194 43.5672 11.2958C44.1519 12.027 44.454 12.9414 44.4187 13.8736C44.431 14.3577 44.3581 14.8403 44.2032 15.2995L48.563 14.2847C46.9781 10.2251 41.7258 9.66182 40.7564 9.66182C32.4369 9.52988 27.8719 17.2735 30.5596 23.5811C32.2153 27.3793 35.996 29.8668 40.1768 29.9089C41.9095 29.9434 43.6252 29.5639 45.1778 28.8027C46.7135 28.0527 48.0388 26.9388 49.0349 25.5601L48.7887 24.9765Z" fill="white"/>
<path d="M67.7051 24.9765C66.6792 26.9149 59.6831 29.2948 55.5489 24.7735C54.8781 23.9971 54.3769 23.0918 54.0769 22.1145C53.7204 20.9971 53.547 19.8305 53.564 18.6588C53.5563 17.5647 53.7189 16.4762 54.0461 15.4314C54.3344 14.4876 54.776 13.596 55.354 12.7927C55.8726 12.0523 56.5394 11.4251 57.3134 10.9507C58.0663 10.5051 58.9291 10.2737 59.8062 10.2808C61.0269 10.2808 61.923 10.6193 62.4938 11.2957C63.0842 12.0249 63.392 12.9398 63.3607 13.8735C63.374 14.3582 63.2991 14.8412 63.1401 15.2995L67.4743 14.2846C65.8996 10.225 60.6473 9.66682 59.6882 9.66682C51.3687 9.53489 46.8037 17.2785 49.4914 23.5861C51.1368 27.3939 54.9175 29.8931 59.1035 29.9393C60.8397 29.9753 62.559 29.5962 64.1147 28.833C65.6503 28.0825 66.9757 26.9687 67.9718 25.5905L67.7051 24.9765Z" fill="white"/>
<path d="M93.1098 25.8797V0L86.9548 1.48174H86.9138V2.05515C87.1292 2.05515 88.9911 2.5626 88.9911 3.83121V25.7884C88.9911 28.559 87.0113 28.9599 85.6725 29.0462V29.508H96.4284V29.0462C95.0948 28.9599 93.156 28.554 93.1098 25.8797V25.8797Z" fill="white"/>
<path d="M18.7112 0L12.6178 1.47667H12.5716V1.92322C12.787 1.92322 14.5976 2.55753 14.1103 3.69928C11.7971 8.76359 4.29312 25.6666 3.89818 26.4278C2.6005 28.965 0.759123 28.965 5.853e-06 29.0462V29.508H9.54026V29.036C9.54026 29.036 5.91906 29.0766 5.91906 27.2042C5.91906 26.0675 7.79121 21.5969 8.299 20.3739L20.727 17.3749C20.7578 17.4511 24.102 25.4636 24.102 27.1534C24.102 28.9802 21.1322 29.036 21.0245 29.036V29.4978H33.473V29.036C31.6701 29.0665 30.0149 28.0252 29.2773 26.3973C28.9029 25.6666 18.7112 0 18.7112 0V0ZM20.2961 16.3398L8.82217 19.1104C8.88372 18.9632 15.1259 4.49089 15.3003 4.12553C15.5619 4.72939 20.291 16.3398 20.291 16.3398H20.2961Z" fill="white"/>
</svg>
