<svg viewBox="0 0 122 22" fill="none" xmlns="http://www.w3.org/2000/svg">
<path d="M10.5329 0.319824L5.72926 11.148H4.99413L0.174255 0.319824H2.67421L5.37006 6.76514L8.04953 0.319824H10.5329Z" fill="white"/>
<path d="M14.4537 0.319824H16.6594V10.9541H14.4537V0.319824Z" fill="white"/>
<path d="M20.8256 8.79498L22.345 7.66714C22.9332 8.47272 23.7011 9.21401 24.9917 9.21401C25.9395 9.21401 26.5277 8.77882 26.5277 8.03787C26.5277 7.34504 26.0048 7.10322 25.1552 6.7165L23.9951 6.20087C22.5083 5.54036 21.3808 4.67032 21.3808 3.13961C21.3808 1.30261 22.933 0.126465 24.9591 0.126465C26.6746 0.126465 27.8838 0.98034 28.5208 2.1405L27.0176 3.2845C26.4947 2.51106 25.8412 2.05989 24.9591 2.05989C24.2402 2.05989 23.6192 2.38215 23.6192 3.09114C23.6192 3.70336 24.0932 3.96117 24.8775 4.31575L26.1028 4.84736C27.802 5.58865 28.766 6.44253 28.766 7.95709C28.766 9.93881 27.1321 11.1474 24.9917 11.1474C24.1461 11.1655 23.3115 10.956 22.5775 10.5415C21.8435 10.1271 21.2378 9.52329 20.8256 8.79498V8.79498Z" fill="white"/>
<path d="M33.1602 0.319824H35.3659V10.9541H33.1602V0.319824Z" fill="white"/>
<path d="M39.6627 5.63756C39.6627 2.51167 42.2113 0.127075 45.381 0.127075C48.5508 0.127075 51.1325 2.51167 51.1325 5.63756C51.1325 8.76345 48.5511 11.148 45.381 11.148C42.211 11.148 39.6627 8.76293 39.6627 5.63756ZM48.861 5.63756C48.861 3.59139 47.3745 2.14111 45.3973 2.14111C43.3876 2.14111 41.9335 3.59139 41.9335 5.63756C41.9335 7.70006 43.3876 9.13401 45.3973 9.13401C47.3745 9.13367 48.861 7.70006 48.861 5.63756Z" fill="white"/>
<path d="M64.6273 0.319852V11.148H63.8918L57.6508 4.57359V10.9541H55.445V0.125977H56.1639L62.4208 6.66771V0.319852H64.6273Z" fill="white"/>
<path d="M75.9 9.56844H71.4889L70.8841 10.9541H68.515L73.3349 0.125977H74.07L78.8737 10.9541H76.5044L75.9 9.56844ZM73.6946 4.18687L72.2568 7.78008H75.1325L73.6946 4.18687Z" fill="white"/>
<path d="M89.4114 10.9541L86.6176 7.19998H85.0004V10.9541H82.7944V0.319824H86.8466C89.1177 0.319824 90.7353 1.67334 90.7353 3.75165C90.7479 4.3828 90.5758 5.00416 90.2396 5.54137C89.9034 6.07858 89.4174 6.50888 88.8397 6.78078L91.8951 10.9539L89.4114 10.9541ZM85.0002 5.2822H86.8466C87.8759 5.2822 88.4805 4.66998 88.4805 3.75148C88.4805 2.86529 87.8761 2.23709 86.8466 2.23709H85.0002V5.2822Z" fill="white"/>
<path d="M95.7014 0.319824H97.9071V10.9541H95.7014V0.319824Z" fill="white"/>
<path d="M102.825 0.319824H110.079V2.2859H105.03V4.44465H108.739V6.29764H105.03V8.98903H110.275V10.9541H102.825V0.319824Z" fill="white"/>
<path d="M113.885 8.79498L115.405 7.66714C115.993 8.47272 116.761 9.21401 118.052 9.21401C118.999 9.21401 119.588 8.77882 119.588 8.03787C119.588 7.34504 119.065 7.10322 118.215 6.7165L117.055 6.20087C115.568 5.54036 114.441 4.67032 114.441 3.13961C114.441 1.30261 115.993 0.126465 118.019 0.126465C119.734 0.126465 120.943 0.98034 121.581 2.1405L120.077 3.2845C119.555 2.51106 118.901 2.05989 118.019 2.05989C117.3 2.05989 116.679 2.38215 116.679 3.09114C116.679 3.70336 117.153 3.96117 117.937 4.31575L119.162 4.84736C120.862 5.58882 121.826 6.4427 121.826 7.95778C121.826 9.9395 120.192 11.1481 118.051 11.1481C117.206 11.166 116.371 10.9564 115.637 10.5419C114.903 10.1273 114.297 9.52338 113.885 8.79498V8.79498Z" fill="white"/>
<path d="M43.1068 19.6551C43.1043 19.362 43.1612 19.0714 43.2741 18.8002C43.3871 18.5291 43.5539 18.283 43.7647 18.0763C43.9754 17.8697 44.226 17.7066 44.5015 17.5968C44.7771 17.487 45.0722 17.4325 45.3694 17.4367C45.7249 17.4296 46.0767 17.5105 46.3924 17.6718C46.7082 17.8332 46.978 18.07 47.1772 18.3605L46.7938 18.6598C46.6412 18.4262 46.4311 18.2344 46.1832 18.1025C45.9352 17.9705 45.6574 17.9026 45.3756 17.9051C44.9118 17.9152 44.4705 18.104 44.1461 18.4311C43.8217 18.7582 43.64 19.1975 43.64 19.655C43.64 20.1125 43.8217 20.5519 44.1461 20.8789C44.4705 21.206 44.9118 21.3948 45.3756 21.405C45.6574 21.4074 45.9352 21.3395 46.1832 21.2075C46.4311 21.0756 46.6412 20.8839 46.7938 20.6503L47.1772 20.9495C46.9791 21.2412 46.7096 21.4788 46.3935 21.6403C46.0775 21.8018 45.7252 21.8819 45.3694 21.8733C45.0722 21.8775 44.7771 21.8231 44.5016 21.7132C44.226 21.6034 43.9755 21.4404 43.7647 21.2337C43.554 21.0271 43.3872 20.781 43.2742 20.5099C43.1612 20.2388 43.1043 19.9482 43.1068 19.6551V19.6551Z" fill="white"/>
<path d="M54.706 17.5082H55.2203V21.3468H57.2852V21.8023H54.7058L54.706 17.5082Z" fill="white"/>
<path d="M64.5169 20.0973V17.5082H65.0314V20.13C65.0314 20.9952 65.5717 21.4051 66.2514 21.4051C66.9245 21.4051 67.4587 20.9952 67.4587 20.13V17.5082H67.9732V20.0973C67.9732 21.2423 67.2344 21.8733 66.2512 21.8733C65.2491 21.8735 64.5169 21.2423 64.5169 20.0973Z" fill="white"/>
<path d="M78.8932 20.5658C78.8932 21.275 78.3787 21.802 77.5146 21.802H75.7195V17.5082H77.2168C77.9887 17.5082 78.457 17.97 78.457 18.5946C78.4615 18.7581 78.4261 18.9202 78.3537 19.0674C78.2814 19.2146 78.1744 19.3425 78.0415 19.4404C78.293 19.5029 78.515 19.6489 78.6701 19.8539C78.8252 20.0589 78.904 20.3103 78.8932 20.5658V20.5658ZM76.2345 17.9636V19.2972H77.1648C77.6729 19.2972 77.9301 19.0239 77.9301 18.6269C77.9301 18.2299 77.6795 17.9633 77.1648 17.9633L76.2345 17.9636ZM78.3653 20.5528C78.3653 20.0909 78.0486 19.7591 77.4616 19.7591H76.2343V21.3468H77.4616C78.049 21.3468 78.3655 21.0211 78.3655 20.5528H78.3653Z" fill="white"/>
</svg>
