<svg viewBox="0 0 114 55" fill="none" xmlns="http://www.w3.org/2000/svg">
<path d="M55.3429 0H51.151L40.7574 30.5658H52.9676L55.3429 0Z" fill="white"/>
<path d="M72.903 30.5658L61.8002 0H57.6083L60.6928 30.5658H72.903Z" fill="white"/>
<path d="M0 54.238H2.30685V50.3514H5.29775L6.10875 48.415H2.30605V45.8932H6.94095H6.9418L7.76665 43.9714H0V54.238Z" fill="white"/>
<path d="M94.8423 47.5339C94.8423 45.2702 93.3407 43.9836 90.6975 43.9836H86.3085V54.211H88.5902V51.2878H90.915L92.5168 54.211H95.1014L92.9515 50.8359C94.1779 50.2512 94.8423 49.112 94.8423 47.5339ZM90.6968 49.3603H88.5894V45.8972H90.6984C91.9524 45.8972 92.6755 46.4671 92.6755 47.6071C92.6755 48.7756 91.9532 49.3603 90.6968 49.3603Z" fill="white"/>
<path d="M11.8031 43.9714H9.49866V54.238H16.184V52.2136H11.8031V43.9714Z" fill="white"/>
<path d="M21.3229 48.5754L18.7091 43.9698H16.3883L20.1691 50.9809V54.2364H22.4743V50.9222L22.4759 50.923L26.1989 43.9706H23.8781L21.3229 48.5754Z" fill="white"/>
<path d="M99.0424 50.0321H103.923V48.1186H99.0432V45.8972H104.457V43.9836H96.7616V54.211H104.615V52.2975H99.0424V50.0321Z" fill="white"/>
<path d="M47.9191 50.0331H52.7991V48.1162H47.9191V45.8957H53.3325V43.9829H45.6375V54.2103H53.4913V52.2968H47.9191V50.0331Z" fill="white"/>
<path d="M62.2693 50.5583L57.3616 43.9829H55.2819V54.2103H57.4617V47.6496L62.3556 54.2095H64.4353V43.9829H62.2693V50.5583Z" fill="white"/>
<path d="M65.6625 45.9411H68.738V54.2094H71.018V45.942H74.1082V43.9836H65.6625V45.9411Z" fill="white"/>
<path d="M81.9913 49.9295C81.9913 51.405 81.097 52.2966 79.7398 52.2966C78.3831 52.2966 77.4303 51.4049 77.4303 49.9295V43.9836H75.1479V49.9295C75.1479 52.6329 76.9394 54.3127 79.7388 54.3127C82.5254 54.3127 84.2728 52.6329 84.2728 49.9295V43.9836H81.9913V49.9295V49.9295Z" fill="white"/>
<path d="M108.63 46.6854C108.63 46.13 109.151 45.8524 109.915 45.8524C110.723 45.8524 111.994 46.2628 113.062 46.9053L113.943 44.9917C112.932 44.319 111.517 43.881 110.102 43.881C107.763 43.881 106.189 45.0495 106.189 46.9044C106.189 50.528 111.574 49.4026 111.574 51.3317C111.574 51.9587 111.012 52.3105 110.074 52.3105C109.005 52.3105 107.533 51.7111 106.493 50.7764L105.584 52.6614C106.724 53.6402 108.385 54.2819 110.046 54.2819C112.283 54.2819 114.001 53.2014 114.001 51.2C114.015 47.5193 108.63 48.5697 108.63 46.6854Z" fill="white"/>
<path d="M53.3354 45.8956H53.3325V45.8969L53.3354 45.8956Z" fill="white"/>
<path d="M42.1735 43.9829L39.4001 51.6973L36.6428 43.9837H34.1886L38.1582 54.211H40.5131L40.5123 54.2102L44.5268 43.9829H42.1735Z" fill="white"/>
</svg>
