<svg viewBox="0 0 87 88" fill="none" xmlns="http://www.w3.org/2000/svg">
<g clip-path="url(#clip0_10_2)">
<path d="M43.6447 64.37V0.0624219C34.9516 6.13454e-05 27.0189 0.960878 18.567 2.90791C17.8296 3.13888 17.2461 3.57541 17.23 4.33297V34.3584C17.2622 35.3262 17.4942 38.95 19.1712 41.8186C25.7623 52.2351 33.355 58.91 41.9723 63.9913C42.4981 64.2347 43.0704 64.36 43.6493 64.3585" fill="#008AC9"/>
<path d="M69.8389 4.36983C69.8389 3.55914 69.1911 3.10876 68.3939 2.88241C60.004 0.951546 52.2919 -3.4796e-05 43.6401 0.0623258V64.3676C44.2564 64.3684 44.8639 64.2203 45.4114 63.9357C53.8265 58.9469 61.1228 52.4244 67.5898 42.3405L67.6473 42.2481C67.7185 42.1395 67.7874 42.0171 67.8586 41.9155C69.492 39.1924 69.7953 35.7464 69.8504 34.5454V4.36983H69.8389Z" fill="#005191"/>
<path d="M36.2611 18.3432C36.2634 18.412 36.2497 18.4805 36.221 18.5431C36.1923 18.6056 36.1493 18.6606 36.0957 18.7035C35.989 18.7898 35.8559 18.8363 35.7189 18.8351H30.9658V35.3884C30.968 35.4617 30.9551 35.5346 30.9278 35.6026C30.9005 35.6706 30.8594 35.7321 30.8072 35.7833C30.7043 35.883 30.5665 35.9378 30.4236 35.9358H27.7495C27.6781 35.9358 27.6074 35.9216 27.5415 35.8941C27.4755 35.8665 27.4157 35.8262 27.3653 35.7753C27.3149 35.7244 27.275 35.6641 27.2479 35.5977C27.2208 35.5313 27.207 35.4602 27.2073 35.3884V18.8351H22.4541C22.3172 18.8363 22.1841 18.7898 22.0774 18.7035C22.0237 18.6606 21.9808 18.6056 21.9521 18.5431C21.9234 18.4805 21.9096 18.412 21.912 18.3432V16.1859C21.9118 16.1167 21.9264 16.0483 21.955 15.9853C21.9835 15.9223 22.0253 15.8663 22.0774 15.821C22.1787 15.7233 22.3137 15.6686 22.4541 15.6686H35.7189C35.8594 15.6686 35.9944 15.7233 36.0957 15.821C36.1478 15.8663 36.1895 15.9223 36.2181 15.9853C36.2466 16.0483 36.2613 16.1167 36.2611 16.1859V18.3432Z" fill="white"/>
<path d="M51.8968 35.4578C51.8992 35.5212 51.8879 35.5844 51.8637 35.643C51.8396 35.7016 51.803 35.7542 51.7566 35.7973C51.6598 35.883 51.5341 35.9284 51.4051 35.9243H48.5335C48.4729 35.9235 48.4131 35.9106 48.3575 35.8864C48.3019 35.8622 48.2516 35.8272 48.2095 35.7834C48.1126 35.6981 48.045 35.5841 48.0166 35.4578L46.7714 30.2818H40.5387L39.2936 35.4578C39.2652 35.5841 39.1976 35.6981 39.1006 35.7834C39.0585 35.8272 39.0082 35.8622 38.9526 35.8864C38.897 35.9106 38.8372 35.9235 38.7767 35.9243H35.905C35.776 35.9284 35.6504 35.883 35.5535 35.7973C35.5071 35.7542 35.4706 35.7016 35.4464 35.643C35.4222 35.5844 35.4109 35.5212 35.4134 35.4578C35.4223 35.4409 35.4292 35.4231 35.4341 35.4046C35.4371 35.3786 35.4371 35.3522 35.4341 35.3261L39.8817 18.2347C40.3565 16.387 41.6139 15.4631 43.6539 15.4631C45.6939 15.4631 46.9475 16.387 47.4147 18.2347L51.8623 35.3261C51.8704 35.3471 51.8766 35.3687 51.8807 35.3908C51.8847 35.4129 51.8847 35.4356 51.8807 35.4578H51.8968ZM46.0294 26.9652L44.0697 18.8606C44.0452 18.7375 43.9951 18.6211 43.9227 18.5188C43.8844 18.4866 43.84 18.4625 43.7923 18.4478C43.7446 18.4332 43.6944 18.4282 43.6447 18.4333C43.5424 18.4247 43.4407 18.4552 43.3599 18.5188C43.2828 18.6189 43.2308 18.7361 43.2082 18.8606L41.2486 26.9652H46.0294Z" fill="white"/>
<path d="M65.4671 18.1561C65.4646 18.2267 65.4478 18.2961 65.4178 18.36C65.3877 18.4239 65.3451 18.4811 65.2925 18.5279C65.2452 18.5797 65.1882 18.6215 65.1247 18.6508C65.0612 18.6802 64.9925 18.6965 64.9226 18.6989H60.328C59.5331 18.6989 58.9771 18.8698 58.6601 19.2047C58.3431 19.5396 58.1846 20.1539 58.1846 21.0524V23.9926H64.6033C64.676 23.989 64.7488 24.0002 64.8171 24.0256C64.8854 24.051 64.9478 24.0901 65.0007 24.1404C65.0504 24.1933 65.0889 24.2558 65.1138 24.3241C65.1386 24.3924 65.1494 24.465 65.1455 24.5377V26.4939C65.148 26.5669 65.1351 26.6396 65.1078 26.7072C65.0805 26.7749 65.0393 26.836 64.987 26.8866C64.9366 26.937 64.8767 26.9766 64.8108 27.0032C64.7449 27.0298 64.6743 27.0428 64.6033 27.0413H58.1937V35.3884C58.1956 35.4618 58.1822 35.5348 58.1545 35.6028C58.1268 35.6708 58.0854 35.7323 58.0329 35.7833C57.93 35.883 57.7921 35.9378 57.6493 35.9358H54.9936C54.9222 35.9358 54.8515 35.9216 54.7856 35.8941C54.7196 35.8665 54.6597 35.8262 54.6094 35.7753C54.559 35.7245 54.5191 35.6641 54.492 35.5977C54.4649 35.5313 54.4511 35.4602 54.4514 35.3884V21.0455C54.4514 19.5811 54.7156 18.4363 55.244 17.611C55.7451 16.8095 56.5089 16.209 57.4035 15.9134C58.4747 15.5832 59.5915 15.4273 60.7116 15.4515C61.4535 15.4303 62.196 15.4635 62.9331 15.5508C63.5971 15.6178 64.2633 15.7125 64.9249 15.8372C65.0818 15.8408 65.2329 15.8969 65.3545 15.9966C65.4422 16.1154 65.4823 16.2629 65.4671 16.41V18.1561Z" fill="white"/>
<path d="M0.771908 84.0596V84.1543C0.771908 85.3299 1.23137 85.8034 2.06301 85.8034C2.5366 85.8009 3.00504 85.7044 3.44141 85.5193L3.58154 85.9628C3.06155 86.2387 2.48329 86.3853 1.8953 86.3901C0.765016 86.3901 0.0114899 85.7734 0.0114899 84.1081C0.0114899 82.4429 0.71907 81.5421 1.92287 81.5421C3.02559 81.5421 3.69411 82.2512 3.59073 84.0596H0.771908ZM2.85329 83.5215C2.85329 82.6207 2.53396 82.0803 1.86544 82.0803C1.19692 82.0803 0.820152 82.7524 0.771908 83.5584H2.85329V83.5215Z" fill="#005191"/>
<path d="M5.37806 84.0596V84.1543C5.37806 85.3299 5.83753 85.8034 6.66916 85.8034C7.13814 85.7993 7.60176 85.7028 8.03378 85.5193L8.17621 85.9628C7.65622 86.2387 7.07795 86.3853 6.48997 86.3901C5.35968 86.3901 4.60616 85.7734 4.60616 84.1081C4.60616 82.4429 5.31374 81.5421 6.51754 81.5421C7.62026 81.5421 8.28878 82.2512 8.1854 84.0596H5.37806ZM7.45944 83.5215C7.45944 82.6207 7.14012 82.0803 6.47159 82.0803C5.80307 82.0803 5.4263 82.7524 5.37806 83.5584H7.45944V83.5215Z" fill="#005191"/>
<path d="M13.0557 86.3138H12.3206C12.3206 85.4616 12.339 84.4661 12.339 83.794C12.339 82.5838 12.0288 82.1472 11.4453 82.1472C11.1053 82.1472 10.6918 82.3782 10.2966 82.7062V86.3138H9.55461V81.616H10.1565L10.2231 82.175C10.6225 81.7903 11.1477 81.5653 11.7003 81.5421C12.548 81.5421 13.0787 82.0895 13.0787 83.6208C13.0787 84.2536 13.0511 85.3715 13.0511 86.3092" fill="#005191"/>
<path d="M16.21 86.3139H15.3715L13.8322 81.6161H14.6432L15.6701 84.7318L15.8861 85.5286C16.3784 84.2663 16.735 82.9547 16.9497 81.6161H17.7377C17.4296 83.2423 16.913 84.8214 16.2008 86.3139" fill="#005191"/>
<path d="M20.3084 86.3901C19.1873 86.3901 18.4338 85.7642 18.4338 84.0689C18.4338 82.3736 19.2631 81.5421 20.5152 81.5421C21.6363 81.5421 22.3898 82.175 22.3898 83.8518C22.3898 85.584 21.5605 86.3924 20.3084 86.3924V86.3901ZM20.3934 82.1218C19.6491 82.1218 19.2057 82.6715 19.2057 83.8541C19.2057 85.293 19.5917 85.8242 20.4302 85.8242C21.1653 85.8242 21.6179 85.2745 21.6179 84.0712C21.6179 82.6507 21.2297 82.1218 20.3934 82.1218" fill="#005191"/>
<path d="M26.525 86.3139L26.4584 85.7642C26.0601 86.1454 25.5375 86.3678 24.9881 86.3901C24.1312 86.3901 23.6097 85.8404 23.6097 84.3114C23.6097 83.6763 23.6373 82.5584 23.6373 81.6207H24.3816C24.3816 82.4753 24.354 83.4684 24.354 84.1405C24.354 85.3623 24.6642 85.7873 25.2477 85.7873C25.5877 85.7873 26.0012 85.5564 26.3964 85.2399V81.6161H27.1407V86.3139H26.525Z" fill="#005191"/>
<path d="M31.4137 86.3139L31.3379 85.7942C30.9613 86.1479 30.4739 86.3586 29.9595 86.3901C29.0176 86.3901 28.4065 85.4662 28.4065 84.1451C28.4065 82.2604 29.4426 81.5422 30.6189 81.5422C30.8348 81.5422 31.1082 81.5699 31.269 81.5791V79.5997H32.0133V86.3139H31.4137ZM31.2713 82.2235C31.0308 82.1449 30.7798 82.1036 30.527 82.1011C29.7551 82.1011 29.1807 82.7062 29.1807 84.0042C29.1807 85.1106 29.5575 85.8035 30.1893 85.8035C30.5998 85.7497 30.9807 85.5594 31.2713 85.263V82.2235Z" fill="#005191"/>
<path d="M33.9936 80.7084C33.5985 80.7084 33.5135 80.6229 33.5135 80.2719C33.5135 79.9208 33.5985 79.8376 33.9936 79.8376C34.3888 79.8376 34.4531 79.9231 34.4531 80.2719C34.4531 80.6206 34.3773 80.7084 33.9936 80.7084ZM33.6077 81.6161H34.352V86.3139H33.6077V81.6161Z" fill="#005191"/>
<path d="M37.4511 87.9999C36.9515 87.99 36.4573 87.8939 35.99 87.7158L36.0566 87.2793C37.8164 87.5726 38.4964 87.4779 38.4964 86.3554V85.6625C38.1303 85.9816 37.6704 86.1714 37.1869 86.203C36.2542 86.203 35.6316 85.2653 35.6316 84.0342C35.6316 82.2928 36.6769 81.5444 37.8738 81.5444C38.3372 81.5548 38.7986 81.6081 39.2522 81.7038V86.1637C39.2522 87.6604 38.5171 88.0115 37.4626 88.0115L37.4511 87.9999ZM38.5079 82.2373C38.2622 82.1532 38.0048 82.1087 37.7452 82.1057C36.9802 82.1057 36.415 82.7478 36.415 83.8656C36.415 84.9258 36.7734 85.6279 37.4236 85.6279C37.833 85.5744 38.2137 85.3879 38.5079 85.0967V82.2373Z" fill="#005191"/>
<path d="M44.288 86.3902C43.4977 86.3902 43.2151 86.0483 43.2151 85.1314V82.1658H42.4616V81.6161H43.2243C43.3001 81.2004 43.3645 80.7754 43.4219 80.2811H43.9595V81.6161H45.2115V82.1658H43.9595V84.9374C43.9595 85.5795 44.0629 85.8081 44.5131 85.8081C44.762 85.7992 45.0075 85.7477 45.2391 85.6557L45.3333 86.1176C45.0089 86.2847 44.6522 86.3785 44.288 86.3925" fill="#008AC9"/>
<path d="M48.584 82.3459C48.4692 82.3032 48.348 82.2805 48.2256 82.2789C47.9339 82.2789 47.6513 82.5099 47.1505 83.1219V86.3139H46.4084V81.6161H47.0195L47.0953 82.4591C47.6421 81.7777 47.9614 81.5514 48.2922 81.5514C48.4264 81.5532 48.5583 81.5856 48.6782 81.6461L48.584 82.3459Z" fill="#008AC9"/>
<path d="M51.945 86.3138L51.8784 85.7826C51.4806 86.1607 50.9576 86.3771 50.4104 86.3901C49.5236 86.3901 49.0526 85.9281 49.0526 85.1313C49.0526 84.1936 49.7602 83.5584 51.4074 83.5584H51.7842V83.0665C51.7842 82.4128 51.474 82.1103 50.7297 82.1103C50.2774 82.1227 49.8309 82.2157 49.411 82.3851L49.2893 81.9001C49.8164 81.6717 50.3832 81.55 50.9571 81.5421C52.1058 81.5421 52.5285 82.1288 52.5285 82.9533V86.3138H51.945ZM51.7842 84.0596H51.3431C50.0796 84.0596 49.797 84.4684 49.797 84.9973C49.7839 85.1092 49.7961 85.2226 49.8326 85.3291C49.8691 85.4355 49.9289 85.5324 50.0077 85.6125C50.0864 85.6926 50.1821 85.7538 50.2876 85.7916C50.3931 85.8295 50.5057 85.843 50.6171 85.8311C51.0587 85.8003 51.4739 85.6081 51.7842 85.2907V84.0596Z" fill="#008AC9"/>
<path d="M57.539 86.3138H56.8062C56.8062 85.4616 56.8245 84.4661 56.8245 83.794C56.8245 82.5838 56.5121 82.1472 55.9286 82.1472C55.5909 82.1472 55.1751 82.3782 54.7799 82.7062V86.3138H54.0356V81.616H54.649L54.7133 82.175C55.1135 81.7901 55.6395 81.5651 56.1928 81.5421C57.0405 81.5421 57.5712 82.0895 57.5712 83.6208C57.5712 84.2536 57.5413 85.3715 57.5413 86.3092" fill="#008AC9"/>
<path d="M59.9512 86.3901C59.4934 86.3957 59.042 86.2811 58.6417 86.0575L58.7359 85.6326C59.0898 85.7483 59.4577 85.8151 59.8294 85.8312C60.5531 85.8312 60.8656 85.4986 60.8656 85.1106C60.8656 84.7226 60.6955 84.487 59.8938 84.1867C58.9611 83.8264 58.6601 83.4938 58.6601 82.8702C58.6601 82.0919 59.2643 81.5445 60.1855 81.5445C60.5731 81.5419 60.9553 81.6363 61.2974 81.8193L61.1849 82.2351C60.9017 82.1443 60.6068 82.0961 60.3096 82.0919C59.7261 82.0919 59.432 82.3967 59.432 82.7663C59.432 83.1358 59.6411 83.3437 60.4497 83.6463C61.3158 83.9581 61.6558 84.3646 61.6558 85.009C61.6558 85.815 61.0149 86.3948 59.9512 86.3948" fill="#008AC9"/>
<path d="M64.0956 86.3901C63.8907 86.3931 63.6859 86.3838 63.4822 86.3623V87.9514H62.7401V81.616H63.342L63.4179 82.1472C63.784 81.7903 64.2644 81.5758 64.7733 81.5421C65.7542 81.5421 66.3561 82.4891 66.3561 83.7848C66.3561 85.614 65.366 86.3901 64.0956 86.3901V86.3901ZM64.5757 82.138C64.1604 82.1868 63.7743 82.3776 63.4822 82.6785V85.7087C63.7183 85.7921 63.9671 85.8335 64.2173 85.8311C64.9892 85.8311 65.5842 85.2352 65.5842 83.9372C65.5842 82.8679 65.2075 82.138 64.5757 82.138Z" fill="#008AC9"/>
<path d="M70.0388 86.3138L69.9722 85.7826C69.5744 86.1607 69.0514 86.3771 68.5042 86.3901C67.6174 86.3901 67.1465 85.9281 67.1465 85.1313C67.1465 84.1936 67.854 83.5584 69.5012 83.5584H69.8872V83.0665C69.8872 82.4128 69.577 82.1103 68.8327 82.1103C68.3804 82.1227 67.9339 82.2157 67.514 82.3851L67.3923 81.9001C67.9187 81.672 68.4847 81.5503 69.0578 81.5421C70.2065 81.5421 70.6315 82.1288 70.6315 82.9533V86.3138H70.0388ZM69.878 84.0596H69.4277C68.1642 84.0596 67.8816 84.4684 67.8816 84.9973C67.8686 85.1092 67.8808 85.2226 67.9172 85.3291C67.9537 85.4355 68.0135 85.5324 68.0923 85.6125C68.1711 85.6926 68.2667 85.7538 68.3722 85.7916C68.4777 85.8295 68.5904 85.843 68.7018 85.8311C69.1434 85.8003 69.5585 85.6081 69.8688 85.2907L69.878 84.0596Z" fill="#008AC9"/>
<path d="M74.3049 82.3459C74.1902 82.3032 74.0689 82.2805 73.9466 82.2789C73.6548 82.2789 73.3722 82.5099 72.8737 83.1219V86.3139H72.1294V81.6161H72.7427L72.8163 82.4591C73.363 81.7777 73.6824 81.5514 74.0132 81.5514C74.1473 81.553 74.2793 81.5854 74.3991 81.6461L74.3049 82.3459Z" fill="#008AC9"/>
<path d="M77.6682 86.3138L77.6016 85.7826C77.2029 86.1607 76.6792 86.3771 76.1313 86.3901C75.2469 86.3901 74.7759 85.9281 74.7759 85.1313C74.7759 84.1936 75.4812 83.5584 77.1307 83.5584H77.5074V83.0665C77.5074 82.4128 77.195 82.1103 76.4529 82.1103C76.0006 82.1222 75.554 82.2153 75.1343 82.3851L75.0102 81.9001C75.5375 81.672 76.1042 81.5504 76.6781 81.5421C77.8267 81.5421 78.2517 82.1288 78.2517 82.9533V86.3138H77.6682ZM77.5074 84.0596H77.064C75.8028 84.0596 75.5202 84.4684 75.5202 84.9973C75.5073 85.109 75.5194 85.2221 75.5557 85.3284C75.5921 85.4347 75.6517 85.5315 75.7302 85.6115C75.8087 85.6915 75.9041 85.7528 76.0093 85.7908C76.1145 85.8288 76.2269 85.8426 76.3381 85.8311C76.7803 85.8002 77.1961 85.608 77.5074 85.2907V84.0596Z" fill="#008AC9"/>
<path d="M83.2623 86.3138H82.5225C82.5225 85.4616 82.5409 84.4661 82.5409 83.794C82.5409 82.5838 82.2308 82.1472 81.6472 82.1472C81.3072 82.1472 80.8937 82.3782 80.4986 82.7062V86.3138H79.7657V81.616H80.3768L80.4434 82.175C80.8436 81.7901 81.3696 81.5651 81.9229 81.5421C82.7706 81.5421 83.3013 82.0895 83.3013 83.6208C83.3013 84.2536 83.2737 85.3715 83.2737 86.3092" fill="#008AC9"/>
<path d="M85.9547 86.3902C85.1644 86.3902 84.8819 86.0483 84.8819 85.1314V82.1658H84.1306V81.6161H84.8934C84.9692 81.2004 85.0358 80.7754 85.0909 80.2811H85.6285V81.6161H86.8874V82.1658H85.6354V84.9374C85.6354 85.5795 85.7388 85.8081 86.1913 85.8081C86.4402 85.7992 86.6857 85.7477 86.9173 85.6557L87.0115 86.1176C86.6863 86.2847 86.3288 86.3785 85.9639 86.3925" fill="#008AC9"/>
</g>
<defs>
<clipPath id="clip0_10_2">
<rect width="87" height="88" fill="white"/>
</clipPath>
</defs>
</svg>
