<svg viewBox="0 0 223 52" fill="none" xmlns="http://www.w3.org/2000/svg">
<path d="M6.59329 26.088L12.4172 43.1919L18.4462 26.088H24.8304V51.3597H20.4388V30.7502L14.1454 49.0026L10.4561 48.9226L4.17851 30.7662V51.3597H0V26.088H6.59329Z" fill="#1B1464"/>
<path d="M40.033 48.8225C38.8611 50.2632 37.8747 51.8919 34.5958 51.8919C32.2007 51.8919 28.9258 51.5278 28.9258 45.561V34.1798L33.1911 34.1558V44.9768C33.1911 47.3699 33.8343 48.7425 36.0873 48.7425C38.8374 48.7425 39.4174 46.5135 39.8396 45.3489V34.1798H44.0537V51.5358H40.0369V48.8225H40.033Z" fill="#1B1464"/>
<path d="M52.2902 36.9731C53.4621 35.5324 54.6853 33.9037 57.9602 33.9037C60.3553 33.9037 63.6302 34.2679 63.6302 40.2346V51.6199L59.3649 51.6439V40.8189C59.3649 38.4258 58.7217 37.0531 56.4687 37.0531C53.7186 37.0531 52.9018 39.2822 52.4836 40.4467V51.6199H48.2695V34.2599H52.2863V36.9731H52.2902Z" fill="#1B1464"/>
<path d="M71.741 51.3597H67.5625V34.2318H71.741V51.3597Z" fill="#1B1464"/>
<path d="M71.741 30.7982H67.5625V26.8724H71.741V30.7982Z" fill="#1B1464"/>
<path d="M82.7848 48.9825C85.7756 48.9825 86.1426 46.8736 86.1426 45.657H90.3803C90.3684 46.8376 90.037 47.9181 89.382 48.9025C88.727 49.883 87.8314 50.6473 86.6989 51.1876C85.5626 51.7278 84.3078 51.9999 82.9347 51.9999C80.3621 51.9999 78.334 51.2076 76.8504 49.6268C75.3668 48.0421 74.6211 45.8571 74.6211 43.0678V42.7637C74.6211 40.0824 75.3589 37.9414 76.8307 36.3407C78.3064 34.74 80.3266 33.9436 82.8992 33.9436C88.5219 33.9436 90.3093 37.2651 90.3093 40.0184H86.2254C86.2018 39.114 85.7993 38.2936 85.1838 37.7253C84.5682 37.1571 83.7554 36.877 82.7493 36.877C80.8474 36.877 78.9851 38.3216 78.9851 42.7237V44.4805C78.9851 46.2733 80.153 48.9825 82.7848 48.9825Z" fill="#1B1464"/>
<path d="M97.7097 37.0251C99.3038 34.5319 101.119 34.0397 103.021 34.0397C106.872 34.0397 108.825 35.5644 108.88 40.1065V51.6398H104.599V40.2106C104.599 38.8819 104.252 37.1732 101.3 37.1732C99.9114 37.1732 98.5422 37.7934 97.7136 40.3226V51.6398H93.5391V25.908H97.7136V37.0251H97.7097Z" fill="#1B1464"/>
<path d="M128.651 41.6233H124.256V51.5919H119.793V26.6724H128.549C135.678 26.6724 137.722 30.0219 137.722 34.0077C137.722 38.0096 135.09 40.0465 132.841 40.6788L138.208 51.5959H133.54L128.651 41.6233ZM124.256 38.1497H128.967C132.254 38.1497 133.22 36.0087 133.22 34.0077C133.22 32.2509 132.648 31.5906 131.989 30.9183C131.33 30.246 130.316 29.9099 128.951 29.9099H124.26V38.1497H124.256Z" fill="#1B1464"/>
<path d="M156.487 41.127H146.181V47.8341L157.683 47.9981V51.6678L141.73 51.5037V26.6603H157.391V30.322H146.181V37.5213H156.487V41.127V41.127Z" fill="#1B1464"/>
<path d="M218.369 30.37L221.865 26.8243H172.121V30.37H218.369Z" fill="#1B1464"/>
<path d="M197.663 0H197.402L193.906 3.54564H197.663H201.158H222.998V0H197.663Z" fill="#1B1464"/>
<path d="M216.693 19.3009L213.197 15.7552H172.122H172.016V19.3009H172.122H216.693Z" fill="#1B1464"/>
<path d="M207.768 41.123L211.264 37.5774H172.122H172.016V41.123H172.122H207.768Z" fill="#1B1464"/>
<path d="M178.555 32.2549L182.051 35.8005H222.999V32.2549H178.555Z" fill="#1B1464"/>
<path d="M172.121 47.9021V51.4477H197.476H197.543H197.587L201.083 47.9021H172.121Z" fill="#1B1464"/>
<path d="M188.945 42.7917L192.437 46.3374H222.997V42.7917H188.945Z" fill="#1B1464"/>
<path d="M206.196 8.65599L202.7 5.11035H172.121V8.65599H206.196Z" fill="#1B1464"/>
<path d="M187.117 10.4329L183.621 13.9785H222.999V10.4329H187.117Z" fill="#1B1464"/>
<path d="M176.41 21.2898L172.914 24.8354H222.997V21.2898H176.41Z" fill="#1B1464"/>
</svg>
