<svg width="40" height="40" viewBox="0 0 40 40" fill="none" xmlns="http://www.w3.org/2000/svg">
<path d="M29.3036 11.6797C28.766 11.1472 28.1278 10.7248 27.4253 10.4366C26.7228 10.1483 25.9699 10 25.2095 10C24.4491 10 23.6961 10.1483 22.9936 10.4366C22.2912 10.7248 21.6529 11.1472 21.1153 11.6797L19.9997 12.7844L18.8841 11.6797C17.7983 10.6046 16.3256 10.0006 14.79 10.0006C13.2544 10.0006 11.7817 10.6046 10.6958 11.6797C9.61001 12.7549 9 14.2131 9 15.7336C9 17.2541 9.61001 18.7124 10.6958 19.7875L11.8115 20.8922L19.9997 29L28.188 20.8922L29.3036 19.7875C29.8414 19.2553 30.268 18.6233 30.5591 17.9277C30.8502 17.2321 31 16.4866 31 15.7336C31 14.9807 30.8502 14.2352 30.5591 13.5396C30.268 12.844 29.8414 12.212 29.3036 11.6797V11.6797Z" stroke="#FC597E" stroke-width="2" stroke-linecap="round" stroke-linejoin="round"/>
</svg>
